# xmcd
#
# Track frame offsets:
#       183
#       8608
#       22083
#       31108
#       40083
#       51383
#       68483
#       84483
#       96833
#       110283
#       127420
#       143358
#       165633
#       179933
#       194745
#       209283
#       223758
#
# Disc length: 3163 seconds
#
# Revision: 2
# Processed by: cddbd v1.4PL0 Copyright (c) Steve Scherf et al.
# Submitted via: WhereIsIt 3.55
#
DISCID=f40c5911
DTITLE=Dizionario della canzone italiana - 23 Gli urlatori e il night
DYEAR=1900
DGENRE=rock
TTITLE0=Mina - Brava
TTITLE1=Mina - Tintarella di luna
TTITLE2=Adriano Celentano - Il tuo bacio è come un rock
TTITLE3=Adriano Celentano - Impazzivo per te
TTITLE4=Toni Dallara - Ti dirò
TTITLE5=Joe sentieri - E' Mezzanotte
TTITLE6=Betty Curtis - Con tutto il cuore
TTITLE7=Fred buscaglione - Whisky facile
TTITLE8=Fred Buongusto - Guarda che luna
TTITLE9=Bruno Martino - Estate
TTITLE10=Renato Carosone - Scapricciatiello
TTITLE11=Peppino di Capri - Voce 'e notte
TTITLE12=Riccardo Rauchi - Carina
TTITLE13=Nicola Artigliano - Amorevole
TTITLE14=Marino Barreto JR - Arrivederci
TTITLE15=Van wood Quartet - Butta la Chiave
TTITLE16=Johnny dorelli - Love in Portofino
EXTD=
EXTT0=
EXTT1=
EXTT2=
EXTT3=
EXTT4=
EXTT5=
EXTT6=
EXTT7=
EXTT8=
EXTT9=
EXTT10=
EXTT11=
EXTT12=
EXTT13=
EXTT14=
EXTT15=
EXTT16=
PLAYORDER=
